<?xml version="1.0" encoding="UTF-8" standalone="no"?>
<!-- Created with Inkscape (http://www.inkscape.org/) -->

<svg
   version="1.1"
   id="svg9"
   width="1366"
   height="625"
   viewBox="0 0 1366 625"
   sodipodi:docname="Drawing (3).jpeg"
   xmlns:inkscape="http://www.inkscape.org/namespaces/inkscape"
   xmlns:sodipodi="http://sodipodi.sourceforge.net/DTD/sodipodi-0.dtd"
   xmlns="http://www.w3.org/2000/svg"
   xmlns:svg="http://www.w3.org/2000/svg">
  <defs
     id="defs13" />
  <sodipodi:namedview
     id="namedview11"
     pagecolor="#ffffff"
     bordercolor="#666666"
     borderopacity="1.0"
     inkscape:pageshadow="2"
     inkscape:pageopacity="0.0"
     inkscape:pagecheckerboard="0"
     showgrid="false"
     showguides="true"
     inkscape:guide-bbox="true" />
  <g
     inkscape:groupmode="layer"
     inkscape:label="Image"
     id="g15"
     style="display:inline">
    <g
       id="g1902">
      <g
         id="g1581"
         transform="translate(192.496,-1.5157166)">
        <g
           sodipodi:type="inkscape:box3d"
           id="g1225"
           style="fill:#000000;fill-rule:evenodd"
           inkscape:perspectiveID="#perspective1585"
           inkscape:corner0="1.1874367 : 0.44292511 : 0 : 1"
           inkscape:corner7="0.43506991 : -0.18040265 : 0.15027614 : 1">
          <path
             sodipodi:type="inkscape:box3dside"
             id="path1237"
             style="fill:#e9e9ff;fill-rule:evenodd;stroke:none;stroke-linejoin:round"
             inkscape:box3dsidetype="11"
             d="M 214.90575,160.02053 354.09631,98.34787 V 451.73958 L 214.90575,399.67706 Z"
             points="354.09631,98.34787 354.09631,451.73958 214.90575,399.67706 214.90575,160.02053 " />
          <path
             sodipodi:type="inkscape:box3dside"
             id="path1227"
             style="fill:#353564;fill-rule:evenodd;stroke:none;stroke-linejoin:round"
             inkscape:box3dsidetype="6"
             d="m 163.25991,150.7804 v 256.12085 l 51.64584,-7.22419 V 160.02053 Z"
             points="163.25991,406.90125 214.90575,399.67706 214.90575,160.02053 163.25991,150.7804 " />
          <path
             sodipodi:type="inkscape:box3dside"
             id="path1235"
             style="fill:#afafde;fill-rule:evenodd;stroke:none;stroke-linejoin:round"
             inkscape:box3dsidetype="13"
             d="m 163.25991,406.90125 126.6897,61.30178 64.1467,-16.46345 -139.19056,-52.06252 z"
             points="289.94961,468.20303 354.09631,451.73958 214.90575,399.67706 163.25991,406.90125 " />
          <path
             sodipodi:type="inkscape:box3dside"
             id="path1229"
             style="fill:#4d4d9f;fill-rule:evenodd;stroke:none;stroke-linejoin:round"
             inkscape:box3dsidetype="5"
             d="m 163.25991,150.7804 126.6897,-72.975175 64.1467,20.542645 -139.19056,61.67266 z"
             points="289.94961,77.805225 354.09631,98.34787 214.90575,160.02053 163.25991,150.7804 " />
          <path
             sodipodi:type="inkscape:box3dside"
             id="path1233"
             style="fill:#d7d7ff;fill-rule:evenodd;stroke:none;stroke-linejoin:round"
             inkscape:box3dsidetype="14"
             d="M 289.94961,77.805225 V 468.20303 l 64.1467,-16.46345 V 98.34787 Z"
             points="289.94961,468.20303 354.09631,451.73958 354.09631,98.34787 289.94961,77.805225 " />
          <path
             sodipodi:type="inkscape:box3dside"
             id="path1231"
             style="fill:#8686bf;fill-rule:evenodd;stroke:none;stroke-linejoin:round"
             inkscape:box3dsidetype="3"
             d="M 163.25991,150.7804 289.94961,77.805225 V 468.20303 l -126.6897,-61.30178 z"
             points="289.94961,77.805225 289.94961,468.20303 163.25991,406.90125 163.25991,150.7804 " />
        </g>
      </g>
      <g
         sodipodi:type="inkscape:box3d"
         id="g1295"
         style="fill:#000000;fill-rule:evenodd"
         inkscape:perspectiveID="#perspective1223"
         inkscape:corner0="3.2052196 : 0.91092309 : 0 : 1"
         inkscape:corner7="1.6236653 : -0.48473077 : 0.29463434 : 1">
        <path
           sodipodi:type="inkscape:box3dside"
           id="path1307"
           style="fill:#e9e9ff;fill-rule:evenodd;stroke:none;stroke-width:0.562495;stroke-linejoin:round"
           inkscape:box3dsidetype="11"
           d="M 598.65605,205.66274 679.77383,156.1188 V 399.97854 L 598.65605,363.8136 Z"
           points="679.77383,156.1188 679.77383,399.97854 598.65605,363.8136 598.65605,205.66274 " />
        <path
           sodipodi:type="inkscape:box3dside"
           id="path1297"
           style="fill:#353564;fill-rule:evenodd;stroke:none;stroke-width:0.562495;stroke-linejoin:round"
           inkscape:box3dsidetype="6"
           d="m 549.75669,199.25756 v 169.23155 l 48.89936,-4.67551 V 205.66274 Z"
           points="549.75669,368.48911 598.65605,363.8136 598.65605,205.66274 549.75669,199.25756 " />
        <path
           sodipodi:type="inkscape:box3dside"
           id="path1305"
           style="fill:#afafde;fill-rule:evenodd;stroke:none;stroke-width:0.562495;stroke-linejoin:round"
           inkscape:box3dsidetype="13"
           d="m 549.75669,368.48911 60.75051,43.04462 69.26663,-11.55519 -81.11778,-36.16494 z"
           points="610.5072,411.53373 679.77383,399.97854 598.65605,363.8136 549.75669,368.48911 " />
        <path
           sodipodi:type="inkscape:box3dside"
           id="path1299"
           style="fill:#4d4d9f;fill-rule:evenodd;stroke:none;stroke-width:0.562495;stroke-linejoin:round"
           inkscape:box3dsidetype="5"
           d="m 549.75669,199.25756 60.75051,-58.96872 69.26663,15.82996 -81.11778,49.54394 z"
           points="610.5072,140.28884 679.77383,156.1188 598.65605,205.66274 549.75669,199.25756 " />
        <path
           sodipodi:type="inkscape:box3dside"
           id="path1303"
           style="fill:#d7d7ff;fill-rule:evenodd;stroke:none;stroke-width:0.562495;stroke-linejoin:round"
           inkscape:box3dsidetype="14"
           d="m 610.5072,140.28884 v 271.24489 l 69.26663,-11.55519 V 156.1188 Z"
           points="610.5072,411.53373 679.77383,399.97854 679.77383,156.1188 610.5072,140.28884 " />
        <path
           sodipodi:type="inkscape:box3dside"
           id="path1301"
           style="fill:#8686bf;fill-rule:evenodd;stroke:none;stroke-width:0.562495;stroke-linejoin:round"
           inkscape:box3dsidetype="3"
           d="M 549.75669,199.25756 610.5072,140.28884 V 411.53373 L 549.75669,368.48911 Z"
           points="610.5072,140.28884 610.5072,411.53373 549.75669,368.48911 549.75669,199.25756 " />
      </g>
    </g>
  </g>
</svg>
